<?xml version="1.0" encoding="UTF-8" standalone="no"?>
<svg
   xmlns:dc="http://purl.org/dc/elements/1.1/"
   xmlns:cc="http://creativecommons.org/ns#"
   xmlns:rdf="http://www.w3.org/1999/02/22-rdf-syntax-ns#"
   xmlns:svg="http://www.w3.org/2000/svg"
   xmlns="http://www.w3.org/2000/svg"
   xmlns:sodipodi="http://sodipodi.sourceforge.net/DTD/sodipodi-0.dtd"
   xmlns:inkscape="http://www.inkscape.org/namespaces/inkscape"
   id="lamp.fw-contract"
   viewBox="3.65 -10 22 29.7"
   version="1.1"
   xml:space="preserve"
   x="0px"
   y="0px"
   width="22"
   height="22"
   inkscape:version="0.48.4 r9939"
   sodipodi:docname="contract.svg"><metadata
   id="metadata20"><rdf:RDF><cc:Work
       rdf:about=""><dc:format>image/svg+xml</dc:format><dc:type
         rdf:resource="http://purl.org/dc/dcmitype/StillImage" /><dc:title></dc:title></cc:Work></rdf:RDF></metadata><defs
   id="defs18" /><sodipodi:namedview
   pagecolor="#ffffff"
   bordercolor="#666666"
   borderopacity="1"
   objecttolerance="10"
   gridtolerance="10"
   guidetolerance="10"
   inkscape:pageopacity="0"
   inkscape:pageshadow="2"
   inkscape:window-width="1920"
   inkscape:window-height="1017"
   id="namedview16"
   showgrid="false"
   inkscape:zoom="2.36"
   inkscape:cx="36.5"
   inkscape:cy="50"
   inkscape:window-x="-8"
   inkscape:window-y="-8"
   inkscape:window-maximized="1"
   inkscape:current-layer="lamp.fw-contract" />
	<g
   id="g3767"
   transform="translate(2.0899995,-79.350001)"><path
     transform="matrix(0.44362027,0,0,0.47041611,44.139748,79.715101)"
     d="m -37.711864,9.5338984 c 0,17.4344126 -14.987078,31.5677966 -33.474576,31.5677966 -18.487497,0 -33.47457,-14.133384 -33.47457,-31.5677966 0,-17.4344128 14.987073,-31.5677964 33.47457,-31.5677964 18.487498,0 33.474576,14.1333836 33.474576,31.5677964 z"
     sodipodi:ry="31.567797"
     sodipodi:rx="33.474575"
     sodipodi:cy="9.5338984"
     sodipodi:cx="-71.18644"
     id="path2997"
     style="color:#000000;fill:#195f57;fill-opacity:1;fill-rule:nonzero;stroke:none;stroke-width:1;marker:none;visibility:visible;display:inline;overflow:visible;enable-background:accumulate"
     sodipodi:type="arc" /><g
     style="fill:#ffffff;fill-opacity:1"
     transform="matrix(0.24,0,0,0.24,3.8000005,72.6053)"
     id="Layer%20117">
		<g
   style="fill:#ffffff;fill-opacity:1"
   id="g4">
			<path
   style="fill:#ffffff;fill-opacity:1"
   inkscape:connector-curvature="0"
   id="path6"
   d="m 48.3081,65.0758 c 0,-6.4893 -5.2866,-11.7498 -11.8081,-11.7498 -6.5227,0 -11.8093,5.2605 -11.8093,11.7498 0,3.8894 1.9069,7.3279 4.8321,9.4659 L 29.5228,95 36.5,90.1522 43.4771,95 l 0,-20.4583 c 2.9247,-2.1392 4.831,-5.5765 4.831,-9.4659 z M 36.5,60.6766 c 2.4377,0 4.421,1.9741 4.421,4.3992 0,2.4275 -1.9833,4.4003 -4.421,4.4003 -2.4383,0 -4.4222,-1.9728 -4.4222,-4.4003 0,-2.4251 1.9839,-4.3992 4.4222,-4.3992 z" />
			<g
   style="fill:#ffffff;fill-opacity:1"
   id="g8">
				<path
   style="fill:#ffffff;fill-opacity:1"
   inkscape:connector-curvature="0"
   id="path10"
   d="m 64.3064,84.1451 -7.3102,0 c -2.0397,0 -3.6935,-1.645 -3.6935,-3.6753 0,-2.0303 1.6538,-3.6753 3.6935,-3.6753 l 3.6167,0 0,-54.4414 -10.051,-10.0025 -38.1747,0 0,64.4439 3.9653,0 c 2.0397,0 3.6935,1.645 3.6935,3.6753 0,2.0303 -1.6538,3.6753 -3.6935,3.6753 l -7.6589,0 C 6.6538,84.1451 5,82.5001 5,80.4698 L 5,8.6753 C 5,6.6456 6.6538,5 8.6936,5 l 43.3983,0 c 0.9799,0 1.9189,0.387 2.6121,1.0767 L 66.9185,18.2321 C 67.6111,18.9212 68,19.8562 68,20.8307 l 0,59.6391 c 0,2.0303 -1.6538,3.6753 -3.6936,3.6753 z" />
			</g>
		</g>
	</g></g>
</svg>