<?xml version="1.0" encoding="UTF-8" standalone="no"?>
<svg
   xmlns:dc="http://purl.org/dc/elements/1.1/"
   xmlns:cc="http://creativecommons.org/ns#"
   xmlns:rdf="http://www.w3.org/1999/02/22-rdf-syntax-ns#"
   xmlns:svg="http://www.w3.org/2000/svg"
   xmlns="http://www.w3.org/2000/svg"
   xmlns:sodipodi="http://sodipodi.sourceforge.net/DTD/sodipodi-0.dtd"
   xmlns:inkscape="http://www.inkscape.org/namespaces/inkscape"
   version="1.1"
   x="0px"
   y="0px"
   width="22"
   height="22"
   viewBox="5 -10 22 29.7"
   enable-background="new 0 0 100 100"
   xml:space="preserve"
   id="svg2"
   inkscape:version="0.48.4 r9939"
   sodipodi:docname="star.svg"><metadata
   id="metadata18"><rdf:RDF><cc:Work
       rdf:about=""><dc:format>image/svg+xml</dc:format><dc:type
         rdf:resource="http://purl.org/dc/dcmitype/StillImage" /></cc:Work></rdf:RDF></metadata><defs
   id="defs16">
	
</defs><sodipodi:namedview
   pagecolor="#ffffff"
   bordercolor="#666666"
   borderopacity="1"
   objecttolerance="10"
   gridtolerance="10"
   guidetolerance="10"
   inkscape:pageopacity="0"
   inkscape:pageshadow="2"
   inkscape:window-width="1920"
   inkscape:window-height="1017"
   id="namedview14"
   showgrid="false"
   inkscape:zoom="5.6568542"
   inkscape:cx="30.805536"
   inkscape:cy="-12.632166"
   inkscape:window-x="-8"
   inkscape:window-y="-8"
   inkscape:window-maximized="1"
   inkscape:current-layer="svg2" />
<path
   sodipodi:type="arc"
   style="opacity:0.2;color:#000000;fill:#195f57;fill-opacity:1;fill-rule:nonzero;stroke:none;stroke-width:1;marker:none;visibility:visible;display:inline;overflow:visible;enable-background:accumulate"
   id="path3765"
   sodipodi:cx="27.789896"
   sodipodi:cy="25.962942"
   sodipodi:rx="23.145761"
   sodipodi:ry="21.947277"
   d="m 50.935658,25.962942 a 23.145761,21.947277 0 1 1 -46.2915235,0 23.145761,21.947277 0 1 1 46.2915235,0 z"
   transform="matrix(0.64158615,0,0,0.6766215,-1.8296124,-12.717084)" /><g
   id="Captions"
   transform="translate(-12.938539,-90.501284)">
</g>
<g
   id="g6"
   transform="matrix(0.21550001,0,0,0.21550238,5.1910586,-5.833422)"
   style="fill:#195f57;fill-opacity:1;stroke:#ffffff;stroke-width:4.54699039;stroke-miterlimit:4;stroke-opacity:1;stroke-dasharray:none">
		<path
   style="fill:#195f57;fill-opacity:1;stroke:#ffffff;stroke-width:4.54699039;stroke-miterlimit:4;stroke-opacity:1;stroke-dasharray:none"
   inkscape:connector-curvature="0"
   id="path8"
   d="M 98,41.108 C 98,36.18 94.401,32.098 89.685,31.327 89.676,31.315 89.662,31.304 89.651,31.3 L 68.637,28.47 59.425,9.803 C 57.993,6.077 54.393,3.424 50.161,3.424 c -4.385,0 -8.102,2.844 -9.414,6.789 L 31.906,28.47 11.344,31.186 c -0.002,0.012 -0.005,0.028 -0.008,0.04 -5.06,0.463 -9.021,4.711 -9.021,9.883 0,3.264 1.578,6.148 4.005,7.964 l 14.238,14.334 -3.461,19.008 c 0.011,0.006 0.021,0.011 0.033,0.016 -0.381,1.055 -0.598,2.181 -0.598,3.363 0,5.484 4.445,9.93 9.933,9.93 1.855,0 3.59,-0.517 5.082,-1.409 l 18.725,-9.319 17.992,9.01 c 1.594,1.087 3.519,1.719 5.593,1.719 5.482,0 9.927,-4.445 9.927,-9.93 0,-0.286 -0.021,-0.574 -0.046,-0.862 0.019,-0.01 0.028,-0.021 0.046,-0.037 L 79.989,63.409 94.613,48.674 C 94.612,48.661 94.592,48.635 94.574,48.606 96.668,46.783 98,44.106 98,41.108 z" />
	</g>
</svg>