<?xml version="1.0" encoding="UTF-8" standalone="no"?>
<svg
   xmlns:dc="http://purl.org/dc/elements/1.1/"
   xmlns:cc="http://creativecommons.org/ns#"
   xmlns:rdf="http://www.w3.org/1999/02/22-rdf-syntax-ns#"
   xmlns:svg="http://www.w3.org/2000/svg"
   xmlns="http://www.w3.org/2000/svg"
   xmlns:sodipodi="http://sodipodi.sourceforge.net/DTD/sodipodi-0.dtd"
   xmlns:inkscape="http://www.inkscape.org/namespaces/inkscape"
   version="1.1"
   id="Layer_1"
   x="0px"
   y="0px"
   width="100px"
   height="100px"
   viewBox="0 0 100 100"
   enable-background="new 0 0 100 100"
   xml:space="preserve"
   inkscape:version="0.48.4 r9939"
   sodipodi:docname="icon_18034.svg"><metadata
   id="metadata12"><rdf:RDF><cc:Work
       rdf:about=""><dc:format>image/svg+xml</dc:format><dc:type
         rdf:resource="http://purl.org/dc/dcmitype/StillImage" /><dc:title></dc:title></cc:Work></rdf:RDF></metadata><defs
   id="defs10" /><sodipodi:namedview
   pagecolor="#ffffff"
   bordercolor="#666666"
   borderopacity="1"
   objecttolerance="10"
   gridtolerance="10"
   guidetolerance="10"
   inkscape:pageopacity="0"
   inkscape:pageshadow="2"
   inkscape:window-width="944"
   inkscape:window-height="1001"
   id="namedview8"
   showgrid="false"
   inkscape:zoom="2.36"
   inkscape:cx="50"
   inkscape:cy="50"
   inkscape:window-x="960"
   inkscape:window-y="0"
   inkscape:window-maximized="0"
   inkscape:current-layer="Layer_1" />
<path
   d="M79.354,12.09C63.146-4.117,36.958-3.986,20.75,12.221s-16.322,42.455-0.117,58.66L49.919,100l29.343-29.348  C95.471,54.443,95.56,28.299,79.354,12.09z M49.997,76.756c-19.603,0-35.497-15.892-35.497-35.497  c0-19.61,15.895-35.505,35.497-35.505c19.609,0,35.503,15.895,35.503,35.505C85.493,60.864,69.606,76.756,49.997,76.756z"
   id="path3"
   style="fill:#3299bb;fill-opacity:1;stroke:#000000;stroke-opacity:1;stroke-width:0.50000000000000000;stroke-miterlimit:4;stroke-dasharray:none" />
<g
   id="_x23_000000ff"
   style="fill:#3299bb;fill-opacity:1;stroke:#000000;stroke-opacity:1;stroke-width:0.50000000000000000;stroke-miterlimit:4;stroke-dasharray:none">
	<path
   d="M48.025,16.008c1.517-1.299,4.18-0.863,5.04,0.99c1.744,4.321,3.457,8.656,5.19,12.98c0.03,0.146,0.167,0.197,0.303,0.197   c4.337,0.296,8.672,0.649,13.01,0.96c1.243,0.026,2.477,0.711,3.04,1.841c0.696,1.269,0.462,3.029-0.677,3.968   c-3.498,2.876-6.964,5.791-10.453,8.676c-0.098,0.083-0.195,0.169-0.261,0.279c0.986,4.291,2.09,8.561,3.122,12.843   c0.781,2.148-1.05,4.681-3.35,4.512c-0.794-0.01-1.487-0.442-2.12-0.876c-3.42-2.161-6.842-4.323-10.266-6.481   c-0.292-0.179-0.567-0.403-0.895-0.508c-3.881,2.336-7.702,4.779-11.573,7.136c-1.064,0.635-2.478,0.625-3.523-0.045   c-1.103-0.656-1.78-2.009-1.521-3.285c1.115-4.577,2.37-9.136,3.435-13.722c-3.145-2.707-6.337-5.358-9.497-8.046   c-0.715-0.581-1.492-1.187-1.802-2.09c-0.759-1.815,0.441-4.18,2.43-4.463c4.732-0.4,9.497-0.568,14.217-1.002   c1.633-3.901,3.203-7.833,4.818-11.746C46.993,17.343,47.339,16.53,48.025,16.008z"
   id="path6"
   style="fill:#3299bb;fill-opacity:1;stroke:#000000;stroke-opacity:1;stroke-width:0.50000000000000000;stroke-miterlimit:4;stroke-dasharray:none" />
</g>
</svg>